<?xml version="1.0" encoding="UTF-8"?>
<svg width="835px" height="770px" viewBox="0 0 835 770" version="1.1" xmlns="http://www.w3.org/2000/svg" xmlns:xlink="http://www.w3.org/1999/xlink">
    <!-- Generator: Sketch 48.2 (47327) - http://www.bohemiancoding.com/sketch -->
    <title>Group 14</title>
    <desc>Created with Sketch.</desc>
    <defs></defs>
    <g id="Work-Copy" stroke="none" stroke-width="1" fill="none" fill-rule="evenodd" transform="translate(-427.000000, -103.000000)">
        <g id="ACTIVE" transform="translate(136.000000, 103.000000)">
            <g id="Group-14" transform="translate(291.000000, 0.000000)">
                <path d="M832.878793,0 L817.533918,0 L128.462172,502.590585 C119.342105,509.214876 119.993539,523.172331 129.668531,528.941086 L522.048566,761.866804 L535.415013,769.762176 C536.283591,770.299942 537.417568,769.884396 537.779475,768.931084 L834.85722,2.93326541 C835.388018,1.51552046 834.374677,0 832.878793,0" id="Fill-15" fill="#F7BB38"></path>
                <path d="M83.2682423,104.563155 C72.6871773,106.077147 67.4449602,118.40886 73.6776423,127.224203 L143.54166,226 L818,0 L83.2682423,104.563155 Z" id="Fill-16" fill="#622EF2"></path>
                <path d="M818,0 L143.334451,226.727336 L10.6921934,271.31337 C-0.0129478784,274.91455 -3.51688801,288.437347 4.04678965,296.889096 L186.203346,461 L818,0 Z" id="Fill-17" fill="#FC5050"></path>
            </g>
        </g>
    </g>
</svg>